<svg width="21" height="21" viewBox="0 0 21 21" fill="none" xmlns="http://www.w3.org/2000/svg">
<path d="M12.5098 10.5C12.5098 11.61 11.61 12.5098 10.5 12.5098C9.39001 12.5098 8.49023 11.61 8.49023 10.5C8.49023 9.39001 9.39001 8.49023 10.5 8.49023C11.61 8.49023 12.5098 9.39001 12.5098 10.5Z" fill="black"/>
<path d="M15.2 6.94413C15.1034 6.68234 14.9493 6.44537 14.749 6.25087C14.5545 6.0506 14.3177 5.89647 14.0558 5.79986C13.8433 5.71735 13.5242 5.61913 12.9363 5.59238C12.3004 5.56338 12.1098 5.55713 10.4999 5.55713C8.88988 5.55713 8.69923 5.56322 8.06348 5.59222C7.47565 5.61913 7.15633 5.71735 6.94405 5.79986C6.68209 5.89647 6.44513 6.0506 6.25079 6.25087C6.05051 6.44537 5.89639 6.68217 5.79961 6.94413C5.7171 7.15658 5.61889 7.47589 5.59213 8.06373C5.56313 8.69947 5.55688 8.89013 5.55688 10.5002C5.55688 12.11 5.56313 12.3007 5.59213 12.9366C5.61889 13.5244 5.7171 13.8436 5.79961 14.056C5.89639 14.318 6.05035 14.5548 6.25063 14.7493C6.44513 14.9495 6.68193 15.1037 6.94389 15.2003C7.15633 15.283 7.47565 15.3812 8.06348 15.4079C8.69923 15.4369 8.88972 15.443 10.4997 15.443C12.1099 15.443 12.3006 15.4369 12.9362 15.4079C13.524 15.3812 13.8433 15.283 14.0558 15.2003C14.5816 14.9975 14.9972 14.5819 15.2 14.056C15.2826 13.8436 15.3808 13.5244 15.4077 12.9366C15.4367 12.3007 15.4428 12.11 15.4428 10.5002C15.4428 8.89013 15.4367 8.69947 15.4077 8.06373C15.3809 7.47589 15.2827 7.15658 15.2 6.94413ZM10.4999 13.596C8.78991 13.596 7.40371 12.21 7.40371 10.5C7.40371 8.78999 8.78991 7.40395 10.4999 7.40395C12.2097 7.40395 13.5959 8.78999 13.5959 10.5C13.5959 12.21 12.2097 13.596 10.4999 13.596ZM13.7184 8.00509C13.3188 8.00509 12.9948 7.68113 12.9948 7.28155C12.9948 6.88197 13.3188 6.55801 13.7184 6.55801C14.1179 6.55801 14.4419 6.88197 14.4419 7.28155C14.4417 7.68113 14.1179 8.00509 13.7184 8.00509Z" fill="black"/>
<path d="M10.5 0C4.7019 0 0 4.7019 0 10.5C0 16.2981 4.7019 21 10.5 21C16.2981 21 21 16.2981 21 10.5C21 4.7019 16.2981 0 10.5 0ZM16.4929 12.9858C16.4638 13.6276 16.3617 14.0658 16.2127 14.4494C15.8995 15.2593 15.2593 15.8995 14.4494 16.2127C14.066 16.3617 13.6276 16.4636 12.9859 16.4929C12.343 16.5222 12.1376 16.5293 10.5002 16.5293C8.86258 16.5293 8.65734 16.5222 8.01423 16.4929C7.37256 16.4636 6.9342 16.3617 6.5508 16.2127C6.14834 16.0613 5.784 15.824 5.4828 15.5172C5.17614 15.2162 4.93886 14.8517 4.78745 14.4494C4.63845 14.066 4.53639 13.6276 4.50723 12.9859C4.47759 12.3428 4.4707 12.1374 4.4707 10.5C4.4707 8.86258 4.47759 8.65718 4.50707 8.01423C4.53623 7.3724 4.63813 6.9342 4.78713 6.55064C4.93854 6.14834 5.17598 5.78384 5.4828 5.4828C5.78384 5.17598 6.14834 4.9387 6.55064 4.78729C6.9342 4.63829 7.3724 4.53639 8.01423 4.50707C8.65718 4.47775 8.86258 4.4707 10.5 4.4707C12.1374 4.4707 12.3428 4.47775 12.9858 4.50723C13.6276 4.53639 14.0658 4.63829 14.4494 4.78713C14.8517 4.93854 15.2162 5.17598 15.5174 5.4828C15.824 5.784 16.0615 6.14834 16.2127 6.55064C16.3619 6.9342 16.4638 7.3724 16.4931 8.01423C16.5224 8.65718 16.5293 8.86258 16.5293 10.5C16.5293 12.1374 16.5224 12.3428 16.4929 12.9858Z" fill="black"/>
</svg>
