<svg width="21" height="21" viewBox="0 0 21 21" fill="none" xmlns="http://www.w3.org/2000/svg">
<g clip-path="url(#clip0)">
<path d="M19.7778 12.9678V5.43235L4.9332 2.75207V1.82568C4.9332 0.819011 4.11423 0 3.10756 0H1.22205V1.23705H3.10752C3.43208 1.23705 3.69615 1.50112 3.69615 1.82568V13.248C3.69615 14.5667 4.76892 15.6394 6.08758 15.6394H6.58261V17.0491C6.32988 16.9384 6.05105 16.8765 5.75791 16.8765C4.62105 16.8765 3.69615 17.8014 3.69615 18.9382C3.69615 20.0751 4.62105 21 5.75791 21C6.82519 21 7.70556 20.1848 7.80931 19.1444H7.81966V15.6394H18.5408V17.0491C18.2881 16.9384 18.0092 16.8765 17.7161 16.8765C16.5792 16.8765 15.6543 17.8014 15.6543 18.9382C15.6543 20.0751 16.5792 21 17.7161 21C18.7834 21 19.6637 20.1848 19.7675 19.1444H19.7778V14.4024H6.08758C5.45103 14.4024 4.9332 13.8846 4.9332 13.248V12.7616L19.7778 12.9678ZM5.75791 19.7629C5.30317 19.7629 4.9332 19.393 4.9332 18.9382C4.9332 18.4835 5.30317 18.1135 5.75791 18.1135C6.21265 18.1135 6.58261 18.4835 6.58261 18.9382C6.58261 19.393 6.21265 19.7629 5.75791 19.7629ZM17.7161 19.7629C17.2613 19.7629 16.8914 19.393 16.8914 18.9382C16.8914 18.4835 17.2613 18.1135 17.7161 18.1135C18.1708 18.1135 18.5408 18.4835 18.5408 18.9382C18.5408 19.393 18.1708 19.7629 17.7161 19.7629ZM11.1185 11.6104L8.64436 11.576V4.67919L11.1185 5.12589V11.6104ZM12.3555 5.34926L14.6235 5.75877V11.6591L12.3555 11.6276V5.34926ZM7.40731 11.5588L4.9332 11.5245V4.00912L7.40731 4.45582V11.5588ZM18.5408 11.7134L15.8605 11.6762V5.9821L18.5408 6.46603V11.7134Z" fill="black"/>
</g>
<defs>
<clipPath id="clip0">
<rect width="21" height="21" fill="white"/>
</clipPath>
</defs>
</svg>
