<svg width="21" height="21" viewBox="0 0 21 21" fill="none" xmlns="http://www.w3.org/2000/svg">
<g clip-path="url(#clip0)">
<path d="M20.7608 19.6062L15.6358 14.4813C16.9097 12.9494 17.6772 10.9823 17.6772 8.83887C17.6772 3.9651 13.7122 0 8.83865 0C3.96499 0 0 3.9651 0 8.83887C0 13.7123 3.96499 17.6771 8.83865 17.6771C10.9819 17.6771 12.9492 16.9097 14.4811 15.6358L19.6062 20.7608C19.7656 20.9203 19.9746 21 20.1835 21C20.3924 21 20.6015 20.9203 20.7609 20.7608C21.0798 20.442 21.0798 19.9251 20.7608 19.6062ZM1.63294 8.83887C1.63294 4.8655 4.86539 1.63294 8.83865 1.63294C12.8118 1.63294 16.0441 4.8655 16.0441 8.83887C16.0441 12.8119 12.8118 16.0441 8.83865 16.0441C4.86539 16.0441 1.63294 12.8119 1.63294 8.83887Z" fill="black"/>
</g>
<defs>
<clipPath id="clip0">
<rect width="21" height="21" fill="white"/>
</clipPath>
</defs>
</svg>
